<svg height="608pt" viewBox="-19 -24 608 608" width="608pt" xmlns="http://www.w3.org/2000/svg"><path d="m510 179.667969h20v280h-20zm0 0"/><path d="m525.230469 479.667969h-10.460938l5.230469 13.078125zm0 0"/><path d="m530 109.667969c0-5.523438-4.476562-10-10-10s-10 4.476562-10 10v50h20zm0 0"/><path d="m300 379.667969v-79.3125c-21.445312 2.722656-40.875 14.019531-53.847656 31.3125l20.917968 20.917969-14.140624 14.140624-17-17c-14.6875 36.082032-1.128907 77.5 32.058593 97.898438l35-35 14.140625 14.140625-29.636718 29.640625c22.484374 6.644531 46.757812 3.066406 66.367187-9.792969 19.609375-12.851562 32.570313-33.675781 35.453125-56.945312h-79.3125c-5.523438 0-10-4.480469-10-10zm0 0"/><path d="m320 300.355469v69.3125h69.3125c-4.617188-36.199219-33.117188-64.699219-69.3125-69.3125zm0 0"/><path d="m360 179.667969c-16.546875-.050781-29.953125-13.453125-30-30v-90h-280v500h400v-380zm10 70h40v20h-40zm-240-150h180v20h-180zm-60 0h40v20h-40zm0 60h240v20h-240zm0 60h240v20h-240zm110 90v20h-40v-20zm-40 30h40v20h-40zm60 170h-40v-20h40zm0-30h-40v-20h40zm110 0c-13.109375.007812-26.09375-2.574219-38.199219-7.597657l-24.699219 24.695313c-1.90625 1.839844-4.449218 2.882813-7.101562 2.902344h-20v-20h15.898438l17.601562-17.597657c-41.382812-28.210937-55.378906-82.753906-32.699219-127.402343l-4.902343-5h-15.898438v-20h20c2.652344.019531 5.195312 1.058593 7.101562 2.898437l4.796876 4.800782c29.082031-36.515626 79.554687-48.050782 121.613281-27.796876 42.054687 20.253907 64.503906 66.90625 54.089843 112.40625-10.414062 45.503907-50.921874 77.75-97.601562 77.691407zm120-180h-40v-20h40zm0 0"/><path d="m400-.332031v94.902343l-53-52.003906c-.101562-.101562-.199219-.101562-.199219-.199218-.800781-.71875-1.714843-1.289063-2.699219-1.699219-.308593-.195313-.644531-.328125-1-.402344-.777343-.261719-1.582031-.429687-2.402343-.5-.300781 0-.5-.097656-.699219-.097656h-300c-5.523438 0-10 4.476562-10 10v450h-30v-500zm0 0"/><path d="m350 149.667969c0 5.519531 4.476562 10 10 10h75.859375l-85.859375-85.859375zm0 0"/><path d="m550 129.667969v10h10v60h10v-70zm0 0"/></svg>